<?xml version="1.0" encoding="utf-8"?>
<!-- Generator: Adobe Illustrator 22.1.0, SVG Export Plug-In . SVG Version: 6.00 Build 0)  -->
<svg version="1.1" xmlns="http://www.w3.org/2000/svg" xmlns:xlink="http://www.w3.org/1999/xlink" x="0px" y="0px"
	 viewBox="0 0 595.3 841.9" style="enable-background:new 0 0 595.3 841.9;" xml:space="preserve">
<style type="text/css">
	.st0{display:none;}
	.st1{display:inline;fill:#00A19A;stroke:#000000;stroke-miterlimit:10;}
	.st2{display:inline;}
	.st3{opacity:0.51;fill:#3C3C3B;enable-background:new    ;}
	.st4{opacity:0.51;fill:#1D1D1B;enable-background:new    ;}
	.st5{opacity:0.41;fill:#FFFFFF;enable-background:new    ;}
	.st6{opacity:0.32;fill:#1D1D1B;enable-background:new    ;}
	.st7{opacity:0.1;fill:#1D1D1B;enable-background:new    ;}
	.st8{opacity:0.29;fill:#1D1D1B;enable-background:new    ;}
	.st9{opacity:0.21;fill:#FFFFFF;enable-background:new    ;}
	.st10{opacity:6.000000e-02;fill:#FFFFFF;enable-background:new    ;}
	.st11{opacity:0.39;fill:#1D1D1B;stroke:#000000;stroke-width:0.5;stroke-miterlimit:10;enable-background:new    ;}
	.st12{fill:#1E1E1E;stroke:#000000;stroke-width:0.5;stroke-miterlimit:10;}
	.st13{fill:none;stroke:#000000;stroke-width:0.25;stroke-miterlimit:10;}
	.st14{fill:#212121;stroke:#000000;stroke-width:0.5;stroke-miterlimit:10;}
	.st15{opacity:0.39;fill:#1D1D1B;stroke:#000000;stroke-width:0.25;stroke-miterlimit:10;enable-background:new    ;}
	.st16{opacity:0.88;fill:#1D1D1B;stroke:#000000;stroke-width:0.5;stroke-miterlimit:10;enable-background:new    ;}
	.st17{fill:none;}
	.st18{opacity:0.54;fill:#878787;enable-background:new    ;}
	.st19{opacity:0.82;fill:#1D1D1B;stroke:#000000;stroke-width:0.25;stroke-miterlimit:10;enable-background:new    ;}
	.st20{fill:none;stroke:#000000;stroke-width:0.75;stroke-miterlimit:10;}
	.st21{opacity:0.35;fill:#1D1D1B;stroke:#000000;stroke-width:0.75;stroke-miterlimit:10;enable-background:new    ;}
	.st22{fill:#7F7F7F;stroke:#1D1D1B;stroke-miterlimit:10;}
	.st23{fill:#3C3C3B;stroke:#1D1D1B;stroke-width:0.5;stroke-miterlimit:10;}
	.st24{fill:none;stroke:#1D1D1B;stroke-width:0.5;stroke-miterlimit:10;}
	.st25{fill:none;stroke:#000000;stroke-width:14;stroke-miterlimit:10;}
	.st26{display:inline;fill:none;stroke:#A5A6A6;stroke-width:6;stroke-miterlimit:10;}
</style>
<g id="Layer_1" class="st0">
	<g id="stora_delen">
		<path class="st1" d="M290.9,388.9L290.9,388.9c0.3-10.1,0.1-24.3-0.1-38.6c-0.1,2.1-0.3,8.5-0.5,17.4c-0.1,3.3-0.1,7-0.2,10.9v0.1
			l0.5,17.6C290.7,394.2,290.9,391.8,290.9,388.9z M447,765.8c0.4-4.2,1.5-10.1,1-12.4c-0.4-2.2-2.8-20-5.1-37.2
			c-1.6-11.9-3.1-23.5-4-29.4c-2-14.5-1.2-13.3,0.2-23.4c1.4-10.1,4.3-30.2,2.4-44c-1.8-13.8,4-121,5.5-129.2s-2.8-19.1-2.5-26.7
			c0-1.1,0.1-2.9,0.2-5.4c0.3-9,0.8-26.6,0.9-46.8c0.1-12.9,0-26.9-0.3-40.5c-0.1-4-0.1-7.5-0.1-10.5c0.4-27.1,6.1-15,9.5-22.8
			c3.8-8.7,2.2-3.9,2.3-6.6c0.1-1.7-3.2-5.7-6.7-11.6c-2.1-3.5-4.2-7.6-5.7-12.3c-4.1-12.7-1.6-42.9-1.9-47.8c-0.3-4.8,4.4-9.7-1-23
			c-5.3-13.3,7.2-34.7,5.1-38c-2.1-3.4-4.7-11.2-9.7-27.9c-2.3-7.5-2.9-20.4-2.9-33.1c-0.1-15.3,0.6-30.1-0.1-34.8
			c-1.3-8.5-8.1-40-8.1-40s-2.3-1.8-5.8-1.6s-10.8,0.9-10.8,0.9s-2.6,0.3-7.2,1c-17.6,2.3-64.3,8.6-105.7,14.6
			c-52.2,7.5-118.3-18.9-118.3-18.9s-0.9-0.2-2.3-0.5c-0.7-0.2-1.6-0.4-2.5-0.6c-5.2-1.1-13.2-2.8-17.5-3.1
			c-6.7-0.5-12,15-12.3,20.6c-0.4,5.6-23.9,70.1-25.3,101.8c-0.8,17.9,0.5,35.7,2.4,50.4c2.5,20,6,34,6,34s3.5,26.1,6.8,34.8
			c3.3,8.7,5.8,29.3,8.9,52.2c3.1,22.9,2.1,49.4,3.4,84.8c1.3,35.4,6,76.3,10.4,98.1s4,63.9,9.6,94c5.6,30.2,6.1,103.4,6.1,103.4
			l-2.1,45.8c0,0,5.5,7,15.7,9c0.4,0.1,0.8,0.2,1.2,0.2c0.9,0.2,1.9,0.3,2.9,0.3c12.8,0.6,7.9-0.1,20.3-1.8c7.9-1.1,17.8,0.6,28,0.7
			c3,0,6.1-0.1,9.2-0.5c0.6-0.1,1.2-0.1,1.8-0.2c0.6-0.1,1.1-0.2,1.7-0.3c0.6-0.1,1.1-0.2,1.7-0.4c0.2,0,0.4-0.1,0.6-0.1
			c0.5-0.1,1-0.2,1.4-0.4c0.1,0,0.3-0.1,0.4-0.1c0.3-0.1,0.5-0.1,0.7-0.2c6-1.9,15.3-4.3,24.5-6.4c12.9-3.1,25.5-5.8,28.2-6.3
			c0.3-0.1,0.5-0.1,0.5-0.1s-0.1-0.5-0.2-1.5c-1.1-7.2-5.9-39-6.7-48.2l0,0c-0.1-0.9-0.1-1.5-0.1-2c0-5.4,2.9-29.8,1.6-45.4
			c-1.3-15.6-8.3-74.4-8.5-90c-0.2-15.5-4.4-46.8-5.2-54.2c-0.3-2.7,1-34.7-0.1-65c-0.5-15.8-0.1-54.9,0.4-82.3v-0.1l-3-100.7
			c0,0,0.6,1.5,1.2,4.7c0.7,3.5,1.4,9.1,1.4,17c0,7.4,0.7,29.1,1.1,50.7l0,0c0.5,4.3,6.9,88.5,9.2,97.7c2.9,11.3,2.8,50,2.8,50
			s-1.7,17.5-0.2,21.8c4.2,12.5,2.3,23.7,2.8,28.5c0.4,4.8,0.3,3.8,3.3,26.3c0.4,3.1,0.8,5.6,1,7.7c1.6,12.8,0.5,7.6,0.4,10.8
			c0,0.1,0,0.2,0,0.2c0,0.2,0,0.5,0.1,0.7c0,0.1,0,0.3,0,0.5c0.3,2.6,1.3,8.4,2.6,15.7c7.2,19.6,18.5,81.3,18.1,103.2
			c-0.3,14.4-1.5,39.4-2.4,54.8l0.6,0.1l4.5,1l10.6,3.2c0,0,3.3,1.3,8.3,4l0,0c5.1,2.7,14.4,0.7,27,1.2c12.6,0.6,14.4-3.8,24.2-7
			c0.5-0.1,0.9-0.3,1.4-0.4c8.5-2.6,11-1.9,19-3.9c0.2,0,0.3-0.1,0.5-0.1c6.3-1.6,14.3,0.3,18.5,1.6c1.7,0.5,2.8,1,2.8,1l1.4,1.5
			l0.1,0.1c0,0-0.1-0.1-0.1-0.2C446.8,769.6,446.8,767.9,447,765.8z"/>
	</g>
	<g id="Layer_12" class="st2">
	</g>
	<g id="skuggor" class="st2">
		<path class="st3" d="M302.5,180.8c0,0,9.8,4.5,15.7,13.4c5.9,8.9,9.4,8.4,12.4,10.5c3.1,2.1,3.3,11.2,6,14
			c2.7,2.7,7.6,6.2,7.6,6.2l14.3-45l-31.3,2.2h-0.1L302.5,180.8z"/>
		<path class="st4" d="M218.7,177.3c0,0-15.5,7.6-23.5,14.9s-16.9,19.1-16.9,19.1l-11.1-6.4l21.9-40.2L218.7,177.3z"/>
		<path class="st4" d="M234.1,190.3c0,0-20.7,17.8-24.9,19.4c-4.2,1.6-11.3,9.9-16.1,12.9c-4.9,3-14.5,10.1-17.4,11.5
			s-6.2,3.4-6.2,3.4l0.4-49.1l52.3-26.4l16.4,15.9L234.1,190.3z"/>
		<path class="st3" d="M254.3,188.7c0,0-1.8,10.8-3.6,24.3c-1.7,13.4-1.5,14.1-2.4,18.3s-2.2,9.2-2.2,9.2l-0.1,2l-15.3-6.3
			l-0.2-58.6l24.1,3.6L254.3,188.7z"/>
		<path class="st4" d="M399.1,63c0,0,9.1,7.9,3.7,21.4s-12,41.2-10.3,48.9s4.4,20.5,4.4,20.5s-1.6-26.9,1.1-36.4
			s13.9-33.6,16.2-41.6c2.3-8.1-4.6-14.1-4.6-14.1L399.1,63z"/>
		<path class="st4" d="M177,57.9c0,0-2.8,13.8-0.7,16.1c2,2.3,2.1,4.7,2.2,6.4c0,1.8-0.6,2.8-1.3,4.3c-0.7,1.4-0.1,3.3-2.7,3.5
			s-3.2-0.5-4.3-0.2c-1,0.3-0.9,3.9-3.3,13.8c-2.5,9.9-13.1,23.7-13.1,23.7s11.6-23.5,11.9-37c0.3-13.5,4-30.3,5.9-30.8
			S177,57.9,177,57.9z"/>
		<path class="st4" d="M334.4,159.5c0,0-23.7-0.6-37.5,3.6s-23.5,10.2-23.5,10.2l1.8,5.3c0,0,11.7-9.3,18.6-9.1s30,2.5,30,2.5
			l2.7-2.3l8.2-2.6L334.4,159.5z"/>
	</g>
	<g id="highlights" class="st2">
		<path class="st5" d="M447,765.8l-4,2l-19-9.4c0,0,1.1,14.3,0.1,8c-4.4-27.6-15.9-103.5-10.8-124.2c6.3-25.5-6.6-45.9-2.4-79.3
			c4.2-33.4,5.8-114.4,11.2-139.9c5.4-25.6-6.8-112.8-6.5-132.3s-0.1-70.5,0.1-94.2c0.1-15.8,10.2-42.4,18.6-59.2
			c0,12.6,0.6,25.5,2.9,33.1c5.1,16.7,7.7,24.5,9.7,27.9c2.1,3.4-10.5,24.7-5.1,38s0.7,18.2,1,23c0.3,4.8-2.3,35.1,1.9,47.8
			c1.5,4.7,3.7,8.8,5.7,12.3c3.5,5.9,6.8,9.9,6.7,11.6c-0.1,2.7,1.4-2.1-2.3,6.6c-3.8,8.7-10.4-7.2-9.4,33.3
			c0.8,34.7-0.1,72.4-0.6,87.3c-0.1,2.5-0.1,4.3-0.2,5.4c-0.3,7.5,4,18.5,2.5,26.7s-7.3,115.3-5.5,129.2c1.9,13.8-1.1,33.9-2.4,44
			c-1.4,10.1-2.2,8.9-0.2,23.4c0.8,5.9,2.4,17.5,4,29.4c2.3,17.2,4.7,35,5.1,37.2C448.6,755.7,447.4,761.6,447,765.8z"/>
		<path class="st6" d="M352.5,776.4c-5-2.7-8.3-4-8.3-4l-10.6-3.2l-4.5-1l-0.6-0.1c0.9-15.4,2.1-40.4,2.4-54.8
			c0.4-21.9-10.9-83.6-18.1-103.2c-1.3-7.3-2.2-13.1-2.6-15.7c0-0.1,0-0.3,0-0.5s0-0.4-0.1-0.7c0-0.1,0-0.2,0-0.2
			c0.1-3.2,1.2,2-0.4-10.8c-0.3-2-0.6-4.6-1-7.7c-3-22.4-2.8-21.5-3.3-26.3s1.4-16-2.8-28.5c-1.5-4.3,0.2-21.8,0.2-21.8
			s0.1-38.7-2.8-50c-2.4-9.2-8.8-69.2-9.1-59.2c-0.2-6.8,1.4-14.7,1.2-21.9c-0.9-30.9-2.2-62.7-2.6-83.9
			c-0.3-13.8-1.6-22.9-1.6-22.9s1,3.9,3.9,11.6c2.9,7.6,9.8,30.5,9.8,30.5s1.7,28.9,1.4,35.6c-0.3,6.8-0.7,14.2,0.2,47.9
			c0.9,33.6,27.1,142.3,26.5,154.2c-0.5,12,16.7,81.2,16.7,81.2l7.4,48.3c0,0,4.2,19.7,4.5,32.6C358.6,711.8,354.4,756,352.5,776.4z
			"/>
		<path class="st7" d="M205.1,636.2c-1.3,12.9-12.1,107.1-16.7,147c-0.4,0-0.8-0.1-1.2-0.2c-10.2-2-15.7-9-15.7-9l2.1-45.8
			c0,0-0.5-73.2-6.1-103.4s-5.2-72.2-9.6-94c-4.4-21.8-9.1-62.8-10.4-98.1c-1.3-35.4-0.3-61.9-3.4-84.8c-3.1-22.9-5.6-43.5-8.9-52.2
			c-3.3-8.7-6.8-34.8-6.8-34.8s-3.5-14-6-34c14.5,37.9,34.3,92.7,34,110c-0.4,27.3,8.3,75.4,17.5,89.6s15.8,61.3,15,77.5
			c-0.7,16.2-9.5,50,0.8,62.4c10.2,12.5,17.4,25.7,16.8,38.6C205.9,617.9,206.7,619.7,205.1,636.2z"/>
	</g>
	<g id="stora_skuggor" class="st2">
		<path class="st8" d="M254.8,780.3c0.3-0.1,0.5-0.1,0.7-0.2c14.4-4.6,48.1-11.8,52.7-12.8c0.3-0.1,0.5-0.1,0.5-0.1
			s-0.1-0.5-0.2-1.5c-1.1-7.2-5.9-39-6.7-48.2l0,0c-0.1-0.9-0.1-1.5-0.1-2c0-5.4,2.9-29.8,1.6-45.4s-8.3-74.4-8.5-90
			c-0.2-15.5-4.4-46.8-5.2-54.2c-0.3-2.7,1-34.7-0.1-65c-0.8-24,0.6-102.4,1.1-110.6c0.5,4.3,6.9,88.5,9.2,97.7
			c2.9,11.3,2.8,50,2.8,50s-1.7,17.5-0.2,21.8c4.2,12.5,2.3,23.7,2.8,28.5c0.4,4.8,0.3,3.8,3.3,26.3c0.4,3.1,0.8,5.6,1,7.7
			c-0.5-32,3.4-78.6,3.3-94.2c-0.2-21.6-4-70.1-12.7-88.8c-8.7-18.7-1.9-115-3.5-134.6s-25.4-20.4-29.8-15.8
			c-4.4,4.6,4.4,47,2.5,63.7c-2,16.7-19.4,36.6-20.9,49.5c-1.5,12.8,5.7,45.6,6,57.6c0.3,12.1-0.8,57.8-7.9,75.5
			c-2.2,5.4-2.5,18.9-1.9,35.9L254.8,780.3z"/>
		<path class="st8" d="M344.1,733.9c4.8-39.5,16.1-141.7,10.4-184c-7.1-53-9.6-99.9-3.9-115.4s4.7-22.3,12.3-30.9
			c7.6-8.7,15-3.8,21.6-24.2c6.6-20.4,6.6,57.5,6.5,79.5c-0.1,22.1,14,23.1,15.6,63.4c1.6,40.4,2,173.6,10.2,184.8
			c4,5.4,6.2,12.3,7.5,18.1"/>
		<path class="st9" d="M256,531.4c1.2,38.7,6.9,95.7,5.1,117.9c-2.2,26.3-9.2,105.7-11.7,133.3c-10.2-0.1-20.1-1.7-28-0.7
			c-12.4,1.7-7.5,2.4-20.3,1.8c-1.4-0.1-2.8-0.2-4.1-0.5c4.6-21.8,14.2-66.3,19.3-86.7c6.9-27.6,11.4-85.9,16.4-97.1
			c5-11.2-3.7-38,2.7-59.3C239.4,526.8,249.1,523.3,256,531.4z"/>
	</g>
	<g id="under_maglappen" class="st2">
		<path class="st10" d="M408.7,112.2c-2.8,9.4-2.3,62.4-9,69.6c-6.7,7.2-81.6,12.5-89.7,9c-8.2-3.5-22.6,7.5-39.9,5.2
			c-17.4-2.2-138.7-22.3-139.2-25.3s12-32.8,20-57.2c5.6-17.1,10.9-43.7,13.6-58.1c3.2,0.6,6.5,1.3,9,1.8c0.9,0.2,1.8,0.4,2.5,0.6
			c1.4,0.3,2.3,0.5,2.3,0.5s66.1,26.4,118.3,18.9c41.4-6,88.1-12.2,105.7-14.6c4.6-0.6,7.2-1,7.2-1s6.5-0.6,10.1-0.8
			c0.7,4.4,1.3,8.9,1.6,12.8C422.1,86.4,411.5,102.8,408.7,112.2z"/>
	</g>
	<g id="fickor" class="st2">
		<path class="st11" d="M233.4,179.8c0,0,0.3,51.4-2.6,56.1s-6.1,33.9-7,35.7c-1,1.8-37.4-1.4-55.1-2.5s-28.2,7.1-28.8-0.4
			s15.3-92.6,20.1-95.2s17.4-2.9,17.4-2.9L233.4,179.8z"/>
		<path class="st11" d="M397.3,147.5c0,0,13.5-2.1,14.1,0.6c0.6,2.7-0.7,109.8-5.3,115c0,0-30.3,6.9-41.7,5.1
			c-11.4-1.8-8.6-5.3-11.4-1.8s-33.6-3.4-33.6-3.4s4.9-52.1,5.8-60.5c1-8.4,0.2-15.7,0.4-20.5s-2-11.5-2-11.5L397.3,147.5z"/>
		<path class="st11" d="M454.7,337.6c-3.8,8.7-10.4-7.2-9.4,33.3c0.8,34.7-0.1,72.4-0.6,87.3l-1.7,2.6c0,0-9.3,4.1-15.1,5.3
			c-5.8,1.2-29.2,2.3-29.2,2.3s1.6-68.6,1.3-75.3c-0.3-6.6,3.4-74.2,3.4-74.2l46.9,0.5c3.5,5.9,6.8,9.9,6.7,11.6
			C457,333.6,458.5,328.8,454.7,337.6z"/>
	</g>
	<g id="maglappen" class="st2">
		<path class="st12" d="M125,235.4c0,0-0.4,7.1,6.2,12c6.6,4.9,23.2,12.7,27.6,11.2c4.5-1.5,11.1-6.6,10.7-8.3s-2-5.5-2-5.5
			L131.1,226L125,235.4z"/>
		<path class="st13" d="M398,117.3c-0.4,8.3-0.9,48.8-2.4,53s-3,5.7-15.6,6.5s-12.6,0.8-12.6,0.8s-24.8,4.9-38,4.6
			c-13-0.4-24.7-4.1-37.6,1.4c-0.3,0.1-0.6,0.3-1,0.4c-2.7,1.2-5.3,2.1-7.9,2.8c-7.8,2-15.1,1.8-21.1,1.6c-2-0.1-3.9-0.1-5.6-0.1
			c-4.9,0-7.6-2.2-13.6-4.4c-4.2-1.5-10-3.1-19.4-3.9c-22.6-1.9-30-3.4-37.8-0.8c-7.8,2.6-37.3-11.4-43.1-11.4c-5.9,0-5.9,0-5.9,0
			S145,142,155.6,122s8.7-37.2,11.8-50.8c1.3-5.8,3.4-10.1,5.3-13c0.3-0.4,0.5-0.7,0.8-1.1c2.9,0.6,4.8,1.1,4.8,1.1
			S220.2,75,263.6,78c7,0.5,14,0.6,20.9,0.3c4.1-0.2,8.2-0.6,12.1-1.1c32.3-4.6,67.9-9.5,90.3-12.5c13.8-1.9,22.6-3,22.6-3
			c3.7,2.4,5.3,7.9,5.3,11.5C414.9,76.7,398.4,109,398,117.3z"/>
		<path class="st14" d="M175.5,203.1l3.8,5c0,0-12.2,35.1-11.8,36.6s-37.4-12-37.5-16.8s-1.7-2.6-1.7-2.6s5.1-14.1,6.1-15
			c0.9-1,2.3-0.8,3-0.8s6.8-3.5,6-7.9s-0.8-4.4-0.8-4.4l4.7-7.2L175.5,203.1z"/>
		<path class="st15" d="M130.1,228c0,0-5.7,5.9-5.1,7.4s13.8,6.4,16.8,7.1c3,0.7,3,0.7,3,0.7l2.8-5L130.1,228z"/>
		<path class="st14" d="M378.4,200.2c0,0,8.8,12.2,10.5,20.3s2,19.4,2,19.4s-25.6,3.8-31.1,5.8c-5.5,2.1-9.2-1.3-12.2,0.7s-3,2-3,2
			s-2.4-21.7-1.6-25s-2.8-20.1,0-20.2C346.1,203.2,378.4,200.2,378.4,200.2z"/>
		<path class="st16" d="M388.5,240.3c0,0,4.3,10.4,3.9,14.2c-0.4,3.8-2.2,4.5-2.2,4.5s-2.9-3.8-2.4-3.3c0.5,0.6,2.1,7.7,1.8,9.8
			c-0.3,2-11.3-1-13.9-5.1s-9.3-16.3-9.3-16.3L388.5,240.3z"/>
		<path class="st16" d="M368.7,248.2c0,0-17.9-3.7-20.9-1.7s-26.9,29-28.7,32c-1.8,3,6.4,10,8.6,13.4s2.2,3.5,2.2,3.5
			s25.7-31.9,27.3-34.1c1.7-2.2,3.3-4.1,3.3-4.1l13.6,0.6L368.7,248.2z"/>
		<path class="st16" d="M389.6,265.5c0,0,36.7,61.8,40.2,66.2c3.5,4.4,12.6,14.3,12.6,14.3s2.1-4.6,3.2-5.9s3.1-3.2,3.1-3.2
			s-12.7-13.6-20.6-27.3c-7.9-13.6-35.7-55.1-35.7-55.1l-8.3-1.5L389.6,265.5z"/>
		<path class="st13" d="M398,117.3c-0.4,8.3-0.9,48.8-2.4,53s-3,5.7-15.6,6.5s-12.6,0.8-12.6,0.8s-24.8,4.9-38,4.6
			c-13-0.4-24.7-4.1-37.6,1.4c-0.3,0.1-0.6,0.3-1,0.4c-2.7,1.2-5.3,2.1-7.9,2.8c-7.8,2-15.1,1.8-21.1,1.6c-2-0.1-3.9-0.1-5.6-0.1
			c-4.9,0-7.6-2.2-13.6-4.4c-4.2-1.5-10-3.1-19.4-3.9c-22.6-1.9-30-3.4-37.8-0.8c-7.8,2.6-37.3-11.4-43.1-11.4c-5.9,0-5.9,0-5.9,0
			S145,142,155.6,122s8.7-37.2,11.8-50.8c1.3-5.8,3.4-10.1,5.3-13c0.3-0.4,0.5-0.7,0.8-1.1c2.9,0.6,4.8,1.1,4.8,1.1
			S220.2,75,263.6,78c7,0.5,14,0.6,20.9,0.3c4.1-0.2,8.2-0.6,12.1-1.1c32.3-4.6,67.9-9.5,90.3-12.5c13.8-1.9,22.6-3,22.6-3
			c3.7,2.4,5.3,7.9,5.3,11.5C414.9,76.7,398.4,109,398,117.3z"/>
	</g>
	<g id="detaljer_maglappen" class="st2">
		<path class="st17" d="M242.5,183.9c-4.2-1.5-10-3.1-19.4-3.9c-22.6-1.9-30-3.4-37.8-0.8c-7.8,2.6-37.3-11.4-43.1-11.4
			c-5.9,0-5.9,0-5.9,0S145,142,155.6,122s8.7-37.2,11.8-50.8c1.3-5.8,3.4-10.1,5.3-13c2.9,20.1,8.7,41.3,19.7,58.1
			c29.8,45.6,32,40.7,46.2,61.6C239.9,179.9,241.2,181.9,242.5,183.9z"/>
		<path class="st17" d="M398,117.3c-0.4,8.3-0.9,48.8-2.4,53s-3,5.7-15.6,6.5s-12.6,0.8-12.6,0.8s-24.8,4.9-38,4.6
			c-13-0.4-24.7-4.1-37.6,1.4c1.4-3.8,3-7.9,4.9-11.8c5.9-12.2,7.6-11.8,16.3-23.8c8.6-12,4.7-11.1,1.5-19.5s-3.9-13.5,1.3-27.8
			c5.2-14.3,15-5.9,44.1-11.2c13.1-2.4,21.7-13.4,27.2-24.9c13.8-1.9,22.6-3,22.6-3c3.7,2.4,5.3,7.9,5.3,11.5
			C414.9,76.7,398.4,109,398,117.3z"/>
		<path class="st18" d="M282.8,186.8c-7.8,2-15.1,1.8-21.1,1.6c-1.6-8.2-3.2-19-4-29.8c-1-13.7,3-53.2,5.9-80.6
			c7,0.5,14,0.6,20.9,0.3c-4.3,12.2-9.3,27.8-11.2,38c-3.5,18.8,1.8,16.3,12.9,37.7C291.1,163.5,287.9,175.9,282.8,186.8z"/>
		<path class="st19" d="M147.3,190c0.2,1.5,20.1,12.5,24.2,12.8c4,0.3,4,0.3,4,0.3s3.7-6.9,6.3-10.2s16.5-26.9,16.5-26.9
			s-14.2-13.4-21.2-14.5S167,151,167,151s-15,30.6-16.1,32.4S147.3,190,147.3,190z"/>
		<path class="st19" d="M333.7,169.8c0,0,4.9,20.7,5.8,24.8s3.7,8.7,3.7,8.7s25.2-0.9,28.7-1.8s6.6-1.3,6.6-1.3s-5.6-28.4-6.2-32.2
			s-4-9-4.5-9.2s-10.2-0.4-20.3,0.3s-12.4-1.6-14.3,1.9C331.4,164.5,333.7,169.8,333.7,169.8z"/>
	</g>
	<g id="yttre_linjer" class="st2">
		<path class="st20" d="M447,765.8c0.4-4.2,1.5-10.1,1-12.4c-0.4-2.2-2.8-20-5.1-37.2c-1.6-11.9-3.1-23.5-4-29.4
			c-2-14.5-1.2-13.3,0.2-23.4c1.4-10.1,4.3-30.2,2.4-44c-1.8-13.8,4-121,5.5-129.2s-2.8-19.1-2.5-26.7c0-1.1,0.1-2.9,0.2-5.4
			c0.3-9,0.8-26.6,0.9-46.8c0.1-12.9,0-26.9-0.3-40.5c-0.1-4-0.1-7.5-0.1-10.5c0.4-27.1,6.1-15,9.5-22.8c3.8-8.7,2.2-3.9,2.3-6.6
			c0.1-1.7-3.2-5.7-6.7-11.6c-2.1-3.5-4.2-7.6-5.7-12.3c-4.1-12.7-1.6-42.9-1.9-47.8c-0.3-4.8,4.4-9.7-1-23
			c-5.3-13.3,7.2-34.7,5.1-38c-2.1-3.4-4.7-11.2-9.7-27.9c-2.3-7.5-2.9-20.4-2.9-33.1c-0.1-15.3,0.6-30.1-0.1-34.8
			c-1.3-8.5-8.1-40-8.1-40s-2.3-1.8-5.8-1.6c-0.2,0-0.4,0-0.7,0c-3.7,0.2-10.1,0.8-10.1,0.8s-2.6,0.3-7.2,1
			c-17.6,2.3-64.3,8.6-105.7,14.6c-52.2,7.5-118.3-18.9-118.3-18.9s-0.9-0.2-2.3-0.5c-0.7-0.2-1.6-0.4-2.5-0.6
			c-2.6-0.6-5.9-1.2-9-1.8c-3.2-0.6-6.3-1.1-8.4-1.3c-6.7-0.5-12,15-12.3,20.6c-0.4,5.6-23.9,70.1-25.3,101.8
			c-0.8,17.9,0.5,35.7,2.4,50.4c2.5,20,6,34,6,34s3.5,26.1,6.8,34.8c3.3,8.7,5.8,29.3,8.9,52.2c3.1,22.9,2.1,49.4,3.4,84.8
			c1.3,35.4,6,76.3,10.4,98.1s4,63.9,9.6,94c5.6,30.2,6.1,103.4,6.1,103.4l-2.1,45.8c0,0,5.5,7,15.7,9c0.4,0.1,0.8,0.2,1.2,0.2
			c0.9,0.2,1.9,0.3,2.9,0.3c12.8,0.6,7.9-0.1,20.3-1.8c7.9-1.1,17.8,0.6,28,0.7c3,0,6.1-0.1,9.2-0.5c0.6-0.1,1.2-0.1,1.8-0.2
			c0.6-0.1,1.1-0.2,1.7-0.3c0.6-0.1,1.1-0.2,1.7-0.4c0.2,0,0.4-0.1,0.6-0.1c0.5-0.1,1-0.2,1.4-0.4c0.1,0,0.3-0.1,0.4-0.1
			c0.3-0.1,0.5-0.1,0.7-0.2c6-1.9,15.3-4.3,24.5-6.4c12.9-3.1,25.5-5.8,28.2-6.3c0.3-0.1,0.5-0.1,0.5-0.1s-0.1-0.5-0.2-1.5
			c-1.1-7.2-5.9-39-6.7-48.2l0,0c-0.1-0.9-0.1-1.5-0.1-2c0-5.4,2.9-29.8,1.6-45.4c-1.3-15.6-8.3-74.4-8.5-90
			c-0.2-15.5-4.4-46.8-5.2-54.2c-0.3-2.7,1-34.7-0.1-65c-0.5-15.8-0.1-54.9,0.4-82.3v-0.1l-3-100.7c0,0,0.6,1.5,1.2,4.7
			c0.7,3.5,1.4,9.1,1.4,17c0,7.4,0.7,29.1,1.1,50.7l0,0c0.5,4.3,6.9,88.5,9.2,97.7c2.9,11.3,2.8,50,2.8,50s-1.7,17.5-0.2,21.8
			c4.2,12.5,2.3,23.7,2.8,28.5c0.4,4.8,0.3,3.8,3.3,26.3c0.4,3.1,0.8,5.6,1,7.7c1.6,12.8,0.5,7.6,0.4,10.8c0,0.1,0,0.2,0,0.2
			c0,0.2,0,0.5,0.1,0.7c0,0.1,0,0.3,0,0.5c0.3,2.6,1.3,8.4,2.6,15.7c7.2,19.6,18.5,81.3,18.1,103.2c-0.3,14.4-1.5,39.4-2.4,54.8
			l0.6,0.1l4.5,1l10.6,3.2c0,0,3.3,1.3,8.3,4l0,0c5.1,2.7,14.4,0.7,27,1.2c12.6,0.6,14.4-3.8,24.2-7c0.5-0.1,0.9-0.3,1.4-0.4
			c8.5-2.6,11-1.9,19-3.9c0.2,0,0.3-0.1,0.5-0.1c6.3-1.6,14.3,0.3,18.5,1.6c1.7,0.5,2.8,1,2.8,1l1.4,1.5l0.1,0.1
			c0,0-0.1-0.1-0.1-0.2C446.8,769.6,446.8,767.9,447,765.8z M290.9,388.9L290.9,388.9c0.3-10.1,0.1-24.3-0.1-38.6
			c-0.1,2.1-0.3,8.5-0.5,17.4c-0.1,3.3-0.1,7-0.2,10.9v0.1l0.5,17.6C290.7,394.2,290.9,391.8,290.9,388.9z"/>
	</g>
	<g id="uppvikta_ben" class="st2">
		<path class="st21" d="M308.7,765c0,0.1,0,0.4-0.1,0.8c-0.1,0.4-0.2,0.9-0.3,1.6c-4.6,1-38.3,8.2-52.7,12.8
			c-15.5,4.9-33.1-0.2-45.5,1.5c-12.4,1.7-7.5,2.4-20.3,1.8C177,782.9,170,774,170,774l2.1-45.3c5.2,3.3,14.6,8.9,18.2,9.8
			c5.1,1.3,24.7-2.4,35.6-1.5c10.9,0.9,40.4-2.7,48-6.8c7.6-4.2,13.3-1.2,18-4.6c3.5-2.5,7.8-6.6,10-7.9l0,0
			c0.7-0.5,1.2-0.6,1.4-0.3c0.6,1.2,4.7,31.5,5.9,37.2C310.4,760.1,308.8,763.9,308.7,765z"/>
		<path class="st21" d="M343,723.1c8.5,0.5,7.7,0.6,12.1,0.6s6.7,1.7,8.8,0.5c2.1-1.2-0.4-4.9,7.4-4s8.4,2.8,8.4,2.8
			s0.2,0.8,4.3,0.2c4.1-0.6,18.1,5,24.3,1.1c6.2-3.9,6.4-4.8,8.6-5.4c2.2-0.7,14.5-0.9,16.1-0.8s7.2-1,7.2-1l2.9-0.8l0.4,1.9
			c0,0,4.6,36.9,4.4,40.9c-0.1,1.6,0.7,6.5-0.6,11.3l0,0l-1.4-1.5c0,0-12.4-4.8-21.3-2.6c-8.9,2.3-11.1,1.3-20.9,4.4
			c-9.8,3.2-11.6,7.6-24.2,7s-21.9,1.5-27-1.2c-5-2.7-8.4-4-8.4-4l-10.6-3.2l-4.5-1c-1.3-5,1.6-46.5,1.6-46.5"/>
	</g>
	<g id="zipper" class="st2">
		<path class="st22" d="M272.5,78.4c0,0-0.5,23.5-1.2,26.4c-0.7,2.8-2.4,28.8-4,35.5c-1.7,6.7,0.6,22.5,0.2,24.6S267,173,267,173
			l6.2,1.8c0,0-3.4-25.7-2.5-29.5s6.2-36.9,5.8-42.3c-0.4-5.4,1.2-24.3,1.2-24.3L272.5,78.4z"/>
		<path class="st23" d="M269.7,185.5c-1.2-0.2-2-3.3-1.9-5.5c0.2-2.2-0.9-7-0.9-7l6.2,1.8c0,0,1.8,4.3,1.7,7.7"/>
		<path class="st23" d="M276.8,196.3c-1.2,1.2-5.2,1.4-6.7-0.3c-1.5-1.8-0.3-10.5-0.3-10.5c1.2,0.2,4.4,1.7,5-1.8
			c0.1-0.4,0.1-0.8,0.1-1.2l0.7-0.4c0,0,1.1,1.5,1.6,3.8C277.8,188.1,278,195.1,276.8,196.3z"/>
	</g>
	<g id="zipper_streck" class="st2">
		<line class="st24" x1="272.5" y1="81.1" x2="277.3" y2="83.4"/>
		<line class="st24" x1="272.4" y1="84.8" x2="276.5" y2="86.5"/>
		<line class="st24" x1="272.3" y1="88.8" x2="276.3" y2="90.4"/>
		<line class="st24" x1="272.1" y1="93" x2="276.2" y2="94.7"/>
		<line class="st24" x1="272" y1="97.1" x2="276" y2="98.9"/>
		<line class="st24" x1="272.7" y1="101.5" x2="276.4" y2="102.9"/>
		<line class="st24" x1="271.2" y1="105.3" x2="275.6" y2="106.7"/>
		<line class="st24" x1="270.9" y1="108.3" x2="275.4" y2="110.3"/>
		<line class="st24" x1="270.9" y1="112.1" x2="275.5" y2="113.6"/>
		<line class="st24" x1="270.8" y1="115.3" x2="274.6" y2="117.2"/>
		<line class="st24" x1="269.9" y1="119" x2="274.4" y2="120.9"/>
		<line class="st24" x1="269.7" y1="122.9" x2="273.5" y2="124.9"/>
		<line class="st24" x1="269.5" y1="127" x2="273.3" y2="129.2"/>
		<line class="st24" x1="269.3" y1="130.8" x2="273" y2="132.4"/>
		<line class="st24" x1="268.3" y1="134" x2="272.2" y2="136.4"/>
		<line class="st24" x1="267.8" y1="137.7" x2="271.7" y2="139.2"/>
		<line class="st24" x1="267.7" y1="141.2" x2="271.1" y2="142.8"/>
		<line class="st24" x1="266.8" y1="144.4" x2="269.8" y2="146"/>
		<line class="st24" x1="266.7" y1="147.7" x2="270.4" y2="149.1"/>
		<line class="st24" x1="266.8" y1="151.3" x2="270.6" y2="153.3"/>
		<line class="st24" x1="267.4" y1="155.3" x2="271.3" y2="156.6"/>
		<line class="st24" x1="267.7" y1="158.4" x2="271.7" y2="160"/>
		<line class="st24" x1="267.5" y1="162.3" x2="271.6" y2="164.2"/>
		<line class="st24" x1="267.7" y1="166.2" x2="272.2" y2="168"/>
		<line class="st24" x1="267.1" y1="169.3" x2="272.8" y2="171.8"/>
	</g>
	<g id="märken" class="st2">
	</g>
</g>
<g id="Layer_2">
	<path class="st25" d="M419.5,60.8c0,0,9.5,36.8,8.5,49.5s-2.3,66.7,5.7,79.9c8,13.2-13.2,79.6,0,105.2c7.5,14.5,7.4,24.2,7.4,24.2"
		/>
	<path class="st25" d="M431.8,465.3c0,0,9.8,32.1,1.1,69.5c-5.2,22.4-14.2,121-13.5,131.8c0.7,10.9,8.7,51.5,8.7,51.5"/>
</g>
<g id="Layer_3" class="st0">
	<path class="st26" d="M419.6,60.8c0,0,9.1,36.1,8.1,48.8s-2.3,66.7,5.7,79.9c8,13.2-13.2,79.6,0,105.2c7.5,14.5,7.4,24.2,7.4,24.2"
		/>
	<path class="st26" d="M432.6,464.6c0,0,9.8,32.1,1.1,69.5c-5.2,22.4-14.2,121-13.5,131.8c0.7,10.9,8.7,51.5,8.7,51.5"/>
</g>
</svg>
