<?xml version="1.0" encoding="utf-8"?>
<!-- Generator: Adobe Illustrator 22.1.0, SVG Export Plug-In . SVG Version: 6.00 Build 0)  -->
<svg version="1.1" id="Layer_2" xmlns="http://www.w3.org/2000/svg" xmlns:xlink="http://www.w3.org/1999/xlink" x="0px" y="0px"
	 viewBox="0 0 1195.2 1211" style="enable-background:new 0 0 1195.2 1211;" xml:space="preserve">
<style type="text/css">
	.st0{fill:#FFFFFF;}
	.st1{fill:#F2AD53;}
	.st2{fill:none;}
	.st3{fill:#5393F2;}
	.st5{font-size:238px;}
</style>
<circle class="st0" cx="598.1" cy="609.1" r="581.9"/>
<g transform="translate(0.000000,699.000000) scale(0.100000,-0.100000)">
	<path class="st1" d="M5992.9,5673c-136.6-72.4-198.2-193.2-199-385.5c0-144.9,20-252.3,103.3-553.7
		c54.1-197.3,78.3-297.3,89.9-374.7c9.2-59.1,8.3-64.9-10-102.4c-29.1-59.1-27.5-155.7,4.2-219.8c40-81.6,101.6-123.2,147.4-98.3
		c24.1,13.3,44.1,76.6,44.1,144.1c0.8,63.3-18.3,146.5-102.4,455.5c-23.3,84.9-51.6,197.3-63.3,249.8
		c-75.8,345.6-55,603.7,67.4,808.5l36.6,61.6l-26.6,23.3c-14.2,12.5-28.3,22.5-30.8,22.5S6023.7,5689.7,5992.9,5673z"/>
	<path class="st1" d="M8622.5,5663.1c-60.8-21.6-87.4-36.6-130.7-74.9c-68.3-60.8-88.3-129.9-60-209.8l14.2-38.3l-74.9-140.7
		c-41.6-77.4-109.9-209.8-152.4-294.8c-273.1-546.2-483.8-812.7-784.4-990.9l-64.1-38.3l28.3-10.8c77.4-27.5,180.7-15,272.3,34.1
		c82.4,44.1,234.8,219,377.2,435.5c105.7,159.9,157.4,252.3,331.4,595.4c208.2,410.5,268.1,519.6,323.1,582.9
		c73.3,85.8,89.1,125.7,59.1,152.4C8740.7,5683.9,8675.8,5682.2,8622.5,5663.1z"/>
	<path class="st1" d="M2104.4,5002.8c-21.6-85.8-10-186.5,32.5-283.9c20-43.3,46.6-75.8,169.9-201.5
		c174-178.2,229-242.3,478.8-553.7c392.2-489.6,551.2-660.3,771-828.5c76.6-59.1,83.3-62.4,124.1-62.4c55,0,91.6,18.3,91.6,46.6
		c0,44.1-88.3,119.1-346.4,293.1c-69.1,46.6-132.4,93.3-141.6,104.1c-9.2,10-30.8,54.1-47.5,98.3c-34.1,86.6-97.4,199.8-165.7,293.9
		c-84.1,116.6-171.5,212.3-406.3,446.3c-315.6,315.6-416.3,432.2-513.8,597c-20.8,35.8-38.3,65.8-40,67.4
		C2110.2,5021.1,2106.9,5012.7,2104.4,5002.8z"/>
	<path class="st1" d="M4142.7,4950.3c-4.2-0.8-30-6.7-55.8-12.5c-26.6-5.8-48.3-13.3-47.5-15.8c0-2.5,20.8-21.6,46.6-41.6
		c70.8-56.6,147.4-158.2,202.3-271.4c53.3-109.9,84.9-203.2,149.9-440.5c82.4-299.8,142.4-448,231.5-567.9
		c44.1-60.8,145.7-161.5,160.7-161.5c11.7,0,18.3,59.1,13.3,119.9c-10,110.7-65.8,243.1-139.1,326.4
		c-89.9,102.4-125.7,210.7-183.2,544.6c-50,298.1-76.6,376.4-154.9,455.5c-31.6,31.6-54.1,45.8-86.6,55.8
		C4241,4952.8,4166.9,4957.8,4142.7,4950.3z"/>
	<path class="st1" d="M10508.5,4000.2c-98.3-70.8-288.1-164.9-582.9-290.6c-370.5-157.4-523.7-238.1-670.3-353.1
		c-76.6-60-191.5-176.5-232.3-236.5l-33.3-48.3l18.3-18.3c22.5-21.6,78.3-25,113.2-6.7c12.5,6.7,39.1,35,59.1,63.3
		c110.7,154.9,264.8,249.8,616.2,377.2c302.3,109.9,389.7,149,495.4,220.7c55.8,38.3,147.4,128.2,183.2,180.7
		c36.6,54.1,78.3,133.2,69.1,133.2C10540.1,4021,10524.3,4011.9,10508.5,4000.2z"/>
	<path class="st1" d="M5982.9,3578.9c-451.3-39.1-900.1-178.2-1272.3-393c-92.4-53.3-397.2-253.1-488.8-320.6
		c-393-288.1-731.9-665.3-961.7-1070.8c-264-464.6-388.9-975.9-354.7-1451.3c5.8-74.9,13.3-144.1,16.7-154
		c3.3-10,8.3,46.6,11.7,132.4c20.8,618.7,269,1251.5,703.6,1795.2c49.1,60.8,159.9,182.4,246.5,269c157.4,158.2,159.9,159,31.6,7.5
		c-219-259.8-403-593.7-512.1-931.8C3287.6,1105,3248.4,737,3290.1,384.8c7.5-61.6,12.5-84.9,20-81.6c5.8,1.7,53.3,13.3,104.9,25
		c271.4,60.8,490.4,64.1,1031.7,18.3c477.1-40,572-45.8,915.9-51.6c497.1-9.2,802.7,7.5,2094.2,117.4
		c748.6,63.3,1161.6,84.1,1494.6,75.8c121.6-2.5,251.5-7.5,289.8-10l68.3-5.8l0.8,49.1c0.8,39.1,2.5,45,8.3,28.3
		c10.8-31.6,0.8,243.1-13.3,347.2c-77.4,577-347.2,1138.3-790.2,1638.7c-350.6,397.2-567,572.9-929.3,752.7
		c-323.1,160.7-647.8,251.5-1032.5,288.1C6420.9,3589.7,6116.1,3591.4,5982.9,3578.9z"/>
	<path class="st1" d="M1215.1,2851.1c-35-5.8-90.8-20.8-124.9-33.3c-64.1-22.5-190.7-85.8-190.7-94.9c0-9.2,129.9-25,216.5-26.6
		c43.3-0.8,180.7,0.8,303.9,5l224.8,6.7l162.4-58.3c89.1-31.6,261.5-95.8,383-141.6c395.5-148.2,648.6-224.8,863.5-259
		c170.7-28.3,160.7-27.5,169-4.2c20,52.5,4.2,107.4-41.6,143.2c-83.3,64.9-234,105.7-532.9,143.2
		c-130.7,16.7-197.3,35.8-437.1,129.1c-129.9,50-369.7,130.7-458,154C1564,2863.6,1359.1,2877.8,1215.1,2851.1z"/>
	<path class="st1" d="M11470.2,1767.8c-126.6-42.5-204-54.1-416.3-58.3c-165.7-3.3-239-0.8-428.8,15c-284.8,24.1-586.2,26.6-707.8,5
		c-104.1-17.5-207.3-48.3-283.9-83.3c-69.1-31.6-174-94.9-174-105.7c0-10,109.1-33.3,156.5-33.3c62.5,0,160.7,20.8,291.4,62.4
		c278.1,87.4,331.4,89.1,738.6,19.2c188.2-32.5,209.8-34.1,370.5-35c166.5-0.8,172.4,0,237.3,22.5c71.6,25,128.2,57.5,184.9,103.3
		c35.8,29.1,99.1,100.8,93.3,105.7C11530.1,1787,11502.7,1779.5,11470.2,1767.8z"/>
	<path class="st1" d="M1315.8,1094.2c-118.2-21.6-223.2-59.1-293.1-106.6c-51.6-34.1-131.6-103.3-131.6-113.2
		c0-3.3,32.5,2.5,71.6,13.3c169.9,46.6,264.8,56.6,511.3,56.6c174,0,254.8-3.3,337.2-15c136.6-18.3,325.6-55.8,468-93.3
		c177.4-45.8,301.4-36.6,332.2,23.3c17.5,34.1,9.2,64.9-30.8,109.1c-42.5,49.1-92.4,77.4-163.2,94.1
		c-62.4,14.2-107.4,10.8-172.4-13.3c-47.5-18.3-112.4-15-388,21.6c-119.9,15.8-209,22.5-341.4,24.1
		C1417.4,1096.7,1327.5,1095.9,1315.8,1094.2z"/>
	<path class="st1" d="M8759.9,308.2c-112.4-4.2-382.2-16.7-599.5-28.3c-217.3-11.7-515.4-25-662-30c-417.2-12.5-477.1-15-566.2-25
		c-188.2-19.2-663.6-43.3-1049.2-53.3c-68.3-1.7-190.7-10.8-270.6-20c-255.6-30.8-349.7-35-970.1-44.1
		c-742.7-11.7-1249-10.8-1769.4,0c-663.6,15-1309,9.2-1536.3-14.2l-58.3-5.8L1394.9,65c679.5-131.6,1460.5-190.7,2348.1-178.2
		c688.6,9.2,1010.9,27.5,2756.1,154.9c568.7,41.6,1065,69.1,1494.6,84.1c312.2,10.8,1160.7,5.8,1382.2-8.3
		c566.2-35.8,980-86.6,1430.5-176.5c93.3-18.3,171.5-32.5,173.2-30c7.5,7.5-286.4,148.2-386.4,184.9
		C10292.8,207.4,9952.2,274,9559.2,299C9364.4,311.5,8988.8,315.7,8759.9,308.2z"/>
</g>
<rect x="185.8" y="754.3" class="st2" width="825" height="216"/>
</svg>
